# Blender 5.0.0
# www.blender.org
mtllib gear.mtl
o Gear
vc 0.0 0.0 0.0
vc 10.0 0.0 0.0
vc 0.0 10.0 0.0
vc 0.0 0.0 10.0
v 0.700000 -0.200000 0.000000
v 0.694011 -0.200000 -0.091368
v 0.676148 -0.200000 -0.181173
v 0.646716 -0.200000 -0.267878
v 0.900000 -0.200000 0.000000
v 0.892300 -0.200000 -0.117474
v 0.869333 -0.200000 -0.232937
v 0.831492 -0.200000 -0.344415
v 0.991445 -0.200000 -0.130526
v 0.965926 -0.200000 -0.258819
v 0.923880 -0.200000 -0.382683
v 1.085245 -0.200000 -0.179566
v 1.062518 -0.200000 -0.284701
v 1.029633 -0.200000 -0.387113
v 0.700000 0.200000 0.000000
v 0.694011 0.200000 -0.091368
v 0.676148 0.200000 -0.181173
v 0.646716 0.200000 -0.267878
v 0.900000 0.200000 0.000000
v 0.892300 0.200000 -0.117474
v 0.869333 0.200000 -0.232937
v 0.831492 0.200000 -0.344415
v 0.991445 0.200000 -0.130526
v 0.965926 0.200000 -0.258819
v 0.923880 0.200000 -0.382683
v 1.085245 0.200000 -0.179566
v 1.062518 0.200000 -0.284701
v 1.029633 0.200000 -0.387113
v 0.606218 -0.200000 -0.350000
v 0.555347 -0.200000 -0.426133
v 0.494975 -0.200000 -0.494975
v 0.426133 -0.200000 -0.555347
v 0.779423 -0.200000 -0.450000
v 0.714018 -0.200000 -0.547885
v 0.636396 -0.200000 -0.636396
v 0.547885 -0.200000 -0.714018
v 0.793353 -0.200000 -0.608761
v 0.707107 -0.200000 -0.707107
v 0.608761 -0.200000 -0.793353
v 0.850066 -0.200000 -0.698131
v 0.777817 -0.200000 -0.777817
v 0.698131 -0.200000 -0.850066
v 0.606218 0.200000 -0.350000
v 0.555347 0.200000 -0.426133
v 0.494975 0.200000 -0.494975
v 0.426133 0.200000 -0.555347
v 0.779423 0.200000 -0.450000
v 0.714018 0.200000 -0.547885
v 0.636396 0.200000 -0.636396
v 0.547885 0.200000 -0.714018
v 0.793353 0.200000 -0.608761
v 0.707107 0.200000 -0.707107
v 0.608761 0.200000 -0.793353
v 0.850066 0.200000 -0.698131
v 0.777817 0.200000 -0.777817
v 0.698131 0.200000 -0.850066
v 0.350000 -0.200000 -0.606218
v 0.267878 -0.200000 -0.646716
v 0.181173 -0.200000 -0.676148
v 0.091368 -0.200000 -0.694011
v 0.450000 -0.200000 -0.779423
v 0.344415 -0.200000 -0.831492
v 0.232937 -0.200000 -0.869333
v 0.117474 -0.200000 -0.892300
v 0.382683 -0.200000 -0.923880
v 0.258819 -0.200000 -0.965926
v 0.130526 -0.200000 -0.991445
v 0.387113 -0.200000 -1.029633
v 0.284701 -0.200000 -1.062518
v 0.179566 -0.200000 -1.085245
v 0.350000 0.200000 -0.606218
v 0.267878 0.200000 -0.646716
v 0.181173 0.200000 -0.676148
v 0.091368 0.200000 -0.694011
v 0.450000 0.200000 -0.779423
v 0.344415 0.200000 -0.831492
v 0.232937 0.200000 -0.869333
v 0.117474 0.200000 -0.892300
v 0.382683 0.200000 -0.923880
v 0.258819 0.200000 -0.965926
v 0.130526 0.200000 -0.991445
v 0.387113 0.200000 -1.029633
v 0.284701 0.200000 -1.062518
v 0.179566 0.200000 -1.085245
v 0.000000 -0.200000 -0.700000
v -0.091368 -0.200000 -0.694011
v -0.181173 -0.200000 -0.676148
v -0.267878 -0.200000 -0.646716
v 0.000000 -0.200000 -0.900000
v -0.117474 -0.200000 -0.892300
v -0.232937 -0.200000 -0.869333
v -0.344415 -0.200000 -0.831492
v -0.130526 -0.200000 -0.991445
v -0.258819 -0.200000 -0.965926
v -0.382683 -0.200000 -0.923880
v -0.179566 -0.200000 -1.085245
v -0.284701 -0.200000 -1.062518
v -0.387113 -0.200000 -1.029633
v 0.000000 0.200000 -0.700000
v -0.091368 0.200000 -0.694011
v -0.181173 0.200000 -0.676148
v -0.267878 0.200000 -0.646716
v 0.000000 0.200000 -0.900000
v -0.117474 0.200000 -0.892300
v -0.232937 0.200000 -0.869333
v -0.344415 0.200000 -0.831492
v -0.130526 0.200000 -0.991445
v -0.258819 0.200000 -0.965926
v -0.382683 0.200000 -0.923880
v -0.179566 0.200000 -1.085245
v -0.284701 0.200000 -1.062518
v -0.387113 0.200000 -1.029633
v -0.350000 -0.200000 -0.606218
v -0.426133 -0.200000 -0.555347
v -0.494975 -0.200000 -0.494975
v -0.555347 -0.200000 -0.426133
v -0.450000 -0.200000 -0.779423
v -0.547885 -0.200000 -0.714018
v -0.636396 -0.200000 -0.636396
v -0.714018 -0.200000 -0.547885
v -0.608761 -0.200000 -0.793353
v -0.707107 -0.200000 -0.707107
v -0.793353 -0.200000 -0.608761
v -0.698131 -0.200000 -0.850066
v -0.777817 -0.200000 -0.777817
v -0.850066 -0.200000 -0.698131
v -0.350000 0.200000 -0.606218
v -0.426133 0.200000 -0.555347
v -0.494975 0.200000 -0.494975
v -0.555347 0.200000 -0.426133
v -0.450000 0.200000 -0.779423
v -0.547885 0.200000 -0.714018
v -0.636396 0.200000 -0.636396
v -0.714018 0.200000 -0.547885
v -0.608761 0.200000 -0.793353
v -0.707107 0.200000 -0.707107
v -0.793353 0.200000 -0.608761
v -0.698131 0.200000 -0.850066
v -0.777817 0.200000 -0.777817
v -0.850066 0.200000 -0.698131
v -0.606218 -0.200000 -0.350000
v -0.646716 -0.200000 -0.267878
v -0.676148 -0.200000 -0.181173
v -0.694011 -0.200000 -0.091368
v -0.779423 -0.200000 -0.450000
v -0.831492 -0.200000 -0.344415
v -0.869333 -0.200000 -0.232937
v -0.892300 -0.200000 -0.117474
v -0.923880 -0.200000 -0.382683
v -0.965926 -0.200000 -0.258819
v -0.991445 -0.200000 -0.130526
v -1.029633 -0.200000 -0.387113
v -1.062518 -0.200000 -0.284701
v -1.085245 -0.200000 -0.179566
v -0.606218 0.200000 -0.350000
v -0.646716 0.200000 -0.267878
v -0.676148 0.200000 -0.181173
v -0.694011 0.200000 -0.091368
v -0.779423 0.200000 -0.450000
v -0.831492 0.200000 -0.344415
v -0.869333 0.200000 -0.232937
v -0.892300 0.200000 -0.117474
v -0.923880 0.200000 -0.382683
v -0.965926 0.200000 -0.258819
v -0.991445 0.200000 -0.130526
v -1.029633 0.200000 -0.387113
v -1.062518 0.200000 -0.284701
v -1.085245 0.200000 -0.179566
v -0.700000 -0.200000 -0.000000
v -0.694011 -0.200000 0.091368
v -0.676148 -0.200000 0.181173
v -0.646716 -0.200000 0.267878
v -0.900000 -0.200000 -0.000000
v -0.892300 -0.200000 0.117474
v -0.869333 -0.200000 0.232937
v -0.831492 -0.200000 0.344415
v -0.991445 -0.200000 0.130526
v -0.965926 -0.200000 0.258819
v -0.923880 -0.200000 0.382683
v -1.085245 -0.200000 0.179566
v -1.062518 -0.200000 0.284701
v -1.029633 -0.200000 0.387113
v -0.700000 0.200000 -0.000000
v -0.694011 0.200000 0.091368
v -0.676148 0.200000 0.181173
v -0.646716 0.200000 0.267878
v -0.900000 0.200000 -0.000000
v -0.892300 0.200000 0.117474
v -0.869333 0.200000 0.232937
v -0.831492 0.200000 0.344415
v -0.991445 0.200000 0.130526
v -0.965926 0.200000 0.258819
v -0.923880 0.200000 0.382683
v -1.085245 0.200000 0.179566
v -1.062518 0.200000 0.284701
v -1.029633 0.200000 0.387113
v -0.606218 -0.200000 0.350000
v -0.555347 -0.200000 0.426133
v -0.494975 -0.200000 0.494975
v -0.426133 -0.200000 0.555347
v -0.779423 -0.200000 0.450000
v -0.714018 -0.200000 0.547885
v -0.636396 -0.200000 0.636396
v -0.547885 -0.200000 0.714018
v -0.793353 -0.200000 0.608761
v -0.707107 -0.200000 0.707107
v -0.608761 -0.200000 0.793353
v -0.850066 -0.200000 0.698131
v -0.777817 -0.200000 0.777817
v -0.698131 -0.200000 0.850066
v -0.606218 0.200000 0.350000
v -0.555347 0.200000 0.426133
v -0.494975 0.200000 0.494975
v -0.426133 0.200000 0.555347
v -0.779423 0.200000 0.450000
v -0.714018 0.200000 0.547885
v -0.636396 0.200000 0.636396
v -0.547885 0.200000 0.714018
v -0.793353 0.200000 0.608761
v -0.707107 0.200000 0.707107
v -0.608761 0.200000 0.793353
v -0.850066 0.200000 0.698131
v -0.777817 0.200000 0.777817
v -0.698131 0.200000 0.850066
v -0.350000 -0.200000 0.606218
v -0.267878 -0.200000 0.646716
v -0.181173 -0.200000 0.676148
v -0.091368 -0.200000 0.694011
v -0.450000 -0.200000 0.779423
v -0.344415 -0.200000 0.831492
v -0.232937 -0.200000 0.869333
v -0.117474 -0.200000 0.892300
v -0.382683 -0.200000 0.923880
v -0.258819 -0.200000 0.965926
v -0.130526 -0.200000 0.991445
v -0.387113 -0.200000 1.029633
v -0.284701 -0.200000 1.062518
v -0.179566 -0.200000 1.085245
v -0.350000 0.200000 0.606218
v -0.267878 0.200000 0.646716
v -0.181173 0.200000 0.676148
v -0.091368 0.200000 0.694011
v -0.450000 0.200000 0.779423
v -0.344415 0.200000 0.831492
v -0.232937 0.200000 0.869333
v -0.117474 0.200000 0.892300
v -0.382683 0.200000 0.923880
v -0.258819 0.200000 0.965926
v -0.130526 0.200000 0.991445
v -0.387113 0.200000 1.029633
v -0.284701 0.200000 1.062518
v -0.179566 0.200000 1.085245
v -0.000000 -0.200000 0.700000
v 0.091368 -0.200000 0.694011
v 0.181173 -0.200000 0.676148
v 0.267878 -0.200000 0.646716
v -0.000000 -0.200000 0.900000
v 0.117474 -0.200000 0.892300
v 0.232937 -0.200000 0.869333
v 0.344415 -0.200000 0.831492
v 0.130526 -0.200000 0.991445
v 0.258819 -0.200000 0.965926
v 0.382683 -0.200000 0.923880
v 0.179566 -0.200000 1.085245
v 0.284701 -0.200000 1.062518
v 0.387113 -0.200000 1.029633
v -0.000000 0.200000 0.700000
v 0.091368 0.200000 0.694011
v 0.181173 0.200000 0.676148
v 0.267878 0.200000 0.646716
v -0.000000 0.200000 0.900000
v 0.117474 0.200000 0.892300
v 0.232937 0.200000 0.869333
v 0.344415 0.200000 0.831492
v 0.130526 0.200000 0.991445
v 0.258819 0.200000 0.965926
v 0.382683 0.200000 0.923880
v 0.179566 0.200000 1.085245
v 0.284701 0.200000 1.062518
v 0.387113 0.200000 1.029633
v 0.350000 -0.200000 0.606218
v 0.426133 -0.200000 0.555347
v 0.494975 -0.200000 0.494975
v 0.555347 -0.200000 0.426133
v 0.450000 -0.200000 0.779423
v 0.547885 -0.200000 0.714018
v 0.636396 -0.200000 0.636396
v 0.714018 -0.200000 0.547885
v 0.608761 -0.200000 0.793353
v 0.707107 -0.200000 0.707107
v 0.793353 -0.200000 0.608761
v 0.698131 -0.200000 0.850066
v 0.777817 -0.200000 0.777817
v 0.850066 -0.200000 0.698131
v 0.350000 0.200000 0.606218
v 0.426133 0.200000 0.555347
v 0.494975 0.200000 0.494975
v 0.555347 0.200000 0.426133
v 0.450000 0.200000 0.779423
v 0.547885 0.200000 0.714018
v 0.636396 0.200000 0.636396
v 0.714018 0.200000 0.547885
v 0.608761 0.200000 0.793353
v 0.707107 0.200000 0.707107
v 0.793353 0.200000 0.608761
v 0.698131 0.200000 0.850066
v 0.777817 0.200000 0.777817
v 0.850066 0.200000 0.698131
v 0.606218 -0.200000 0.350000
v 0.646716 -0.200000 0.267878
v 0.676148 -0.200000 0.181173
v 0.694011 -0.200000 0.091368
v 0.779423 -0.200000 0.450000
v 0.831492 -0.200000 0.344415
v 0.869333 -0.200000 0.232937
v 0.892300 -0.200000 0.117474
v 0.923880 -0.200000 0.382683
v 0.965926 -0.200000 0.258819
v 0.991445 -0.200000 0.130526
v 1.029633 -0.200000 0.387113
v 1.062518 -0.200000 0.284701
v 1.085245 -0.200000 0.179566
v 0.606218 0.200000 0.350000
v 0.646716 0.200000 0.267878
v 0.676148 0.200000 0.181173
v 0.694011 0.200000 0.091368
v 0.779423 0.200000 0.450000
v 0.831492 0.200000 0.344415
v 0.869333 0.200000 0.232937
v 0.892300 0.200000 0.117474
v 0.923880 0.200000 0.382683
v 0.965926 0.200000 0.258819
v 0.991445 0.200000 0.130526
v 1.029633 0.200000 0.387113
v 1.062518 0.200000 0.284701
v 1.085245 0.200000 0.179566
vn -0.0000 -1.0000 -0.0000
vn -0.9239 -0.0000 0.3827
vn -0.0000 1.0000 -0.0000
vn -0.1305 -0.0000 0.9914
vn -0.2113 -0.0000 0.9774
vn 0.4633 -0.0000 0.8862
vn 0.9774 -0.0000 0.2113
vn -0.8443 -0.0000 0.5358
vn 0.9521 -0.0000 -0.3057
vn -0.4423 -0.0000 -0.8969
vn -0.4633 -0.0000 -0.8862
vn -0.3827 -0.0000 0.9239
vn -0.9979 -0.0000 -0.0654
vn 0.8315 -0.0000 0.5556
vn 0.9521 -0.0000 0.3057
vn 0.3827 -0.0000 -0.9239
vn 0.9774 -0.0000 -0.2113
vn 0.8969 -0.0000 0.4423
vn 0.2113 -0.0000 0.9774
vn -0.5358 -0.0000 0.8443
vn 0.6088 -0.0000 0.7934
vn 0.6717 -0.0000 0.7408
vn -0.3057 -0.0000 0.9521
vn 0.8443 -0.0000 0.5358
vn -0.1305 -0.0000 -0.9914
vn 0.8862 -0.0000 0.4633
vn 0.0419 -0.0000 -0.9991
vn 0.7408 -0.0000 -0.6717
vn -0.0419 -0.0000 0.9991
vn 0.8443 -0.0000 -0.5358
vn -0.5556 -0.0000 -0.8315
vn 0.6088 -0.0000 -0.7934
vn -0.9774 -0.0000 0.2113
vn -0.9521 -0.0000 -0.3057
vn -0.9774 -0.0000 -0.2113
vn -0.4633 -0.0000 0.8862
vn 0.6717 -0.0000 -0.7408
vn 0.1305 -0.0000 0.9914
vn 0.4423 -0.0000 0.8969
vn -0.8969 -0.0000 -0.4423
vn -0.9979 -0.0000 0.0654
vn 0.9979 -0.0000 -0.0654
vn -0.7408 -0.0000 -0.6717
vn 0.3057 -0.0000 -0.9521
vn 0.3057 -0.0000 0.9521
vn 0.9991 -0.0000 -0.0419
vn 0.9239 -0.0000 -0.3827
vn -0.8315 -0.0000 -0.5556
vn 0.4633 -0.0000 -0.8862
vn -0.6088 -0.0000 0.7934
vn 0.7408 -0.0000 0.6717
vn -0.9991 -0.0000 0.0419
vn 0.7934 -0.0000 -0.6088
vn -0.7934 -0.0000 0.6088
vn -0.9239 -0.0000 -0.3827
vn -0.0419 -0.0000 -0.9991
vn -0.5358 -0.0000 -0.8443
vn 0.8315 -0.0000 -0.5556
vn -0.6717 -0.0000 0.7408
vn -0.8969 -0.0000 0.4423
vn 0.8969 -0.0000 -0.4423
vn -0.4423 -0.0000 0.8969
vn -0.8315 -0.0000 0.5556
vn 0.1305 -0.0000 -0.9914
vn -0.5556 -0.0000 0.8315
vn -0.3057 -0.0000 -0.9521
vn -0.8862 -0.0000 0.4633
vn 0.5556 -0.0000 0.8315
vn 0.3827 -0.0000 0.9239
vn 0.0654 -0.0000 -0.9979
vn 0.9914 -0.0000 -0.1305
vn -0.7934 -0.0000 -0.6088
vn 0.0419 -0.0000 0.9991
vn -0.9521 -0.0000 0.3057
vn -0.3827 -0.0000 -0.9239
vn -0.8443 -0.0000 -0.5358
vn -0.8862 -0.0000 -0.4633
vn -0.9991 -0.0000 -0.0419
vn -0.6088 -0.0000 -0.7934
vn 0.9991 -0.0000 0.0419
vn 0.9239 -0.0000 0.3827
vn 0.4423 -0.0000 -0.8969
vn 0.7934 -0.0000 0.6088
vn 0.5358 -0.0000 0.8443
vn -0.7408 -0.0000 0.6717
vn 0.0654 -0.0000 0.9979
vn -0.0654 -0.0000 -0.9979
vn 0.8862 -0.0000 -0.4633
vn 0.9914 -0.0000 0.1305
vn 0.5556 -0.0000 -0.8315
vn -0.9914 -0.0000 0.1305
vn 0.2113 -0.0000 -0.9774
vn -0.0654 -0.0000 0.9979
vn -0.9914 -0.0000 -0.1305
vn -0.2113 -0.0000 -0.9774
vn -0.6717 -0.0000 -0.7408
vn 0.5358 -0.0000 -0.8443
vn 0.9979 -0.0000 0.0654
vt 0.698097 0.893188
vt 0.725084 0.948362
vt 0.668127 0.972023
vt 0.513757 0.941599
vt 0.593076 0.952667
vt 0.602668 0.999900
vt 0.680978 0.755799
vt 0.745234 0.852713
vt 0.732993 0.876004
vt 0.547560 0.719107
vt 0.576345 0.711681
vt 0.613558 0.776431
vt 0.249472 0.701976
vt 0.244823 0.681177
vt 0.280894 0.698015
vt 0.490903 0.201411
vt 0.481628 0.276231
vt 0.452232 0.281053
vt 0.369249 0.784144
vt 0.319340 0.887245
vt 0.291935 0.890951
vt 0.194117 0.401835
vt 0.102860 0.369706
vt 0.112227 0.346177
vt 0.509065 0.798476
vt 0.558217 0.769645
vt 0.562651 0.788340
vt 0.755126 0.342501
vt 0.764132 0.365392
vt 0.700108 0.397338
vt 0.705554 0.264739
vt 0.783481 0.179873
vt 0.795497 0.204825
vt 0.598467 0.194278
vt 0.631296 0.103287
vt 0.654763 0.112830
vt 0.549517 0.817040
vt 0.558600 0.912471
vt 0.535720 0.925013
vt 0.583553 0.909545
vt 0.589139 0.935040
vt 0.738625 0.284107
vt 0.813089 0.222461
vt 0.828884 0.242234
vt 0.635103 0.764625
vt 0.437735 0.937456
vt 0.411739 0.993543
vt 0.339330 0.982627
vt 0.294752 0.735522
vt 0.217394 0.820933
vt 0.205232 0.796094
vt 0.540098 0.205235
vt 0.562397 0.062530
vt 0.584294 0.081694
vt 0.211965 0.562749
vt 0.230624 0.558254
vt 0.224250 0.613615
vt 0.361920 0.922154
vt 0.345610 0.887411
vt 0.369039 0.896865
vt 0.297930 0.249322
vt 0.318735 0.244651
vt 0.301893 0.280786
vt 0.294493 0.684133
vt 0.317447 0.735704
vt 0.665644 0.349381
vt 0.705442 0.316172
vt 0.226858 0.848836
vt 0.177583 0.884415
vt 0.121073 0.839390
vt 0.169613 0.797074
vt 0.187544 0.778601
vt 0.567886 0.286838
vt 0.585271 0.238851
vt 0.642505 0.236097
vt 0.205479 0.460068
vt 0.196158 0.440745
vt 0.219449 0.407494
vt 0.657975 0.755690
vt 0.603205 0.700434
vt 0.684187 0.706077
vt 0.698008 0.719763
vt 0.592552 0.219560
vt 0.630899 0.216012
vt 0.315785 0.294394
vt 0.264133 0.317360
vt 0.378479 0.689031
vt 0.403797 0.702887
vt 0.357618 0.764083
vt 0.259804 0.868942
vt 0.337246 0.750365
vt 0.328040 0.355148
vt 0.311020 0.378417
vt 0.787956 0.437918
vt 0.769254 0.442319
vt 0.775974 0.386960
vt 0.485706 0.058328
vt 0.524060 0.061544
vt 0.515376 0.204767
vt 0.580020 0.189559
vt 0.607182 0.096973
vt 0.510724 0.275584
vt 0.475742 0.938400
vt 0.472287 0.999900
vt 0.459951 0.794669
vt 0.415918 0.918349
vt 0.297207 0.403700
vt 0.235646 0.357543
vt 0.423589 0.288704
vt 0.386347 0.223970
vt 0.200072 0.383950
vt 0.215611 0.369275
vt 0.725763 0.270271
vt 0.201481 0.509215
vt 0.269709 0.274425
vt 0.203754 0.205198
vt 0.221271 0.187468
vt 0.398087 0.204551
vt 0.363909 0.094596
vt 0.391653 0.096820
vt 0.450336 0.183041
vt 0.470798 0.189694
vt 0.437303 0.211831
vt 0.244831 0.658134
vt 0.235976 0.635213
vt 0.300059 0.603050
vt 0.275605 0.489211
vt 0.204921 0.484770
vt 0.780401 0.593179
vt 0.803849 0.560117
vt 0.810355 0.580624
vt 0.355185 0.671991
vt 0.264323 0.294665
vt 0.431861 0.713326
vt 0.414647 0.761189
vt 0.616327 0.200371
vt 0.393093 0.903121
vt 0.911647 0.336074
vt 0.905540 0.365065
vt 0.281031 0.547666
vt 0.288760 0.576349
vt 0.650911 0.666273
vt 0.413078 0.189941
vt 0.415833 0.090747
vt 0.189544 0.420293
vt 0.096723 0.393837
vt 0.735837 0.683407
vt 0.671914 0.645495
vt 0.689040 0.622110
vt 0.795375 0.398771
vt 0.903189 0.392753
vt 0.794581 0.540713
vt 0.518405 0.723868
vt 0.761100 0.585912
vt 0.784064 0.631485
vt 0.112282 0.319853
vt 0.440572 0.803918
vt 0.713060 0.568546
vt 0.764037 0.643107
vt 0.407471 0.780497
vt 0.420078 0.810433
vt 0.809939 0.413818
vt 0.909160 0.416920
vt 0.559509 0.196014
vt 0.440834 0.087694
vt 0.463726 0.075026
vt 0.701789 0.751253
vt 0.664398 0.912131
vt 0.816709 0.451053
vt 0.809997 0.471487
vt 0.529095 0.810280
vt 0.383842 0.799745
vt 0.460513 0.721053
vt 0.644917 0.328492
vt 0.682828 0.264405
vt 0.274504 0.730144
vt 0.357340 0.939832
vt 0.279569 0.948946
vt 0.798248 0.491537
vt 0.286782 0.431809
vt 0.238808 0.414588
vt 0.719145 0.302375
vt 0.755225 0.319480
vt 0.401668 0.805777
vt 0.539445 0.279231
vt 0.276248 0.518273
vt 0.226531 0.920205
vt 0.532830 0.998861
vt 0.735566 0.706133
vt 0.730084 0.726358
vt 0.794976 0.516001
vt 0.724428 0.511190
vt 0.334198 0.651061
vt 0.702987 0.596687
vt 0.813878 0.432331
vt 0.912125 0.441880
vt 0.774156 0.151872
vt 0.718657 0.452800
vt 0.711242 0.424195
vt 0.777402 0.918399
vt 0.265926 0.124754
vt 0.301016 0.107540
vt 0.364724 0.235723
vt 0.484637 0.795127
vt 0.662953 0.249793
vt 0.740946 0.131605
vt 0.568218 0.814257
vt 0.489383 0.724604
vt 0.902999 0.607722
vt 0.896725 0.631811
vt 0.441745 0.230519
vt 0.283457 0.261471
vt 0.240959 0.171516
vt 0.799654 0.616899
vt 0.124941 0.734075
vt 0.153687 0.808761
vt 0.621647 0.311184
vt 0.596353 0.297063
vt 0.723658 0.482054
vt 0.253804 0.148129
vt 0.279159 0.460482
vt 0.348920 0.334150
vt 0.341789 0.244635
vt 0.183181 0.549840
vt 0.189791 0.529361
vt 0.601754 0.795810
vt 0.586701 0.810358
vt 0.204817 0.601951
vt 0.190159 0.587014
vt 0.681101 0.113092
vt 0.750678 0.298654
vt 0.720796 0.540051
vt 0.431598 0.185935
vt 0.396926 0.299941
vt 0.372191 0.315023
vt 0.848524 0.774599
vt 0.838386 0.880417
vt 0.807849 0.847730
vt 0.708603 0.109481
vt 0.638475 0.078013
vt 0.643094 0.060348
vt 0.716299 0.739213
vt 0.721120 0.051497
vt 0.627977 0.685279
vt 0.831199 0.204172
vt 0.875456 0.267474
vt 0.852162 0.255227
vt 0.635410 0.905993
vt 0.081612 0.416802
vt 0.941338 0.486749
vt 0.999495 0.397715
vt 0.998570 0.467627
vt 0.058327 0.515095
vt 0.065541 0.590565
vt 0.047958 0.594685
vt 0.097104 0.608800
vt 0.094956 0.636509
vt 0.087829 0.559731
vt 0.075082 0.536941
vt 0.607721 0.903608
vt 0.924708 0.464768
vt 0.062593 0.438788
vt 0.016949 0.340450
vt 0.059811 0.358310
vt 0.186114 0.568547
vt 0.077517 0.362774
vt 0.684958 0.372426
vt 0.466495 0.001228
vt 0.082824 0.778638
vt 0.107848 0.699163
vt 0.202789 0.169549
vt 0.050532 0.280254
vt 0.108477 0.292413
vt 0.261587 0.716429
vt 0.089040 0.665552
vt 0.805689 0.599054
vt 0.001331 0.534506
vt 0.061588 0.476889
vt 0.330858 0.028671
vt 0.334832 0.088609
vt 0.150929 0.226952
vt 0.079394 0.226872
vt 0.115313 0.177714
vt 0.160471 0.121029
vt 0.191096 0.153631
vt 0.249438 0.337180
vt 0.410078 0.065295
vt 0.406037 0.047698
vt 0.847227 0.192630
vt 0.661157 0.017585
vt 0.758222 0.829430
vt 0.396281 0.000511
vt 0.938227 0.524878
vt 0.890677 0.709070
vt 0.750394 0.663538
vt 0.820547 0.783953
vt 0.934647 0.411307
vt 0.952269 0.407350
vt 0.315195 0.627824
vt 0.922000 0.638977
vt 0.918244 0.584872
vt 0.178885 0.217418
vt 0.148272 0.746147
vt 0.171623 0.758952
vt 0.029040 0.669676
vt 0.917875 0.223075
vt 0.892665 0.302367
vt 0.939667 0.643584
vt 0.948674 0.721515
vt 0.879938 0.162107
vt 0.937363 0.563028
vt 0.982441 0.661622
vt 0.993418 0.589030
vt 0.000794 0.604582
vt 0.774359 0.080477
vt 0.887019 0.681586
vt 0.006326 0.413033
vt 0.919865 0.774723
vt 0.883843 0.823926
vt 0.090967 0.584681
vt 0.795609 0.796002
vt 0.868675 0.741399
vt 0.796295 0.831712
vt 0.221393 0.082638
vt 0.887234 0.655265
vt 0.823510 0.116596
vt 0.971544 0.332287
vt 0.777990 0.813618
vt 0.588416 0.006497
vt 0.130664 0.260063
vt 0.527468 0.000100
vt 0.052764 0.726365
vt 0.000100 0.473690
vt 0.273885 0.052462
vt 0.999713 0.528275
vt 0.947836 0.275359
s 0
f 117/1/1 113/2/1 114/3/1
f 120/4/1 119/5/1 115/6/1
f 109/7/2 95/8/2 92/9/2
f 129/10/3 128/11/3 132/12/3
f 196/13/3 193/14/3 192/15/3
f 302/16/3 298/17/3 297/18/3
f 165/19/4 151/20/4 148/21/4
f 251/22/5 237/23/5 238/24/5
f 134/25/3 133/26/3 136/27/3
f 22/28/3 47/29/3 43/30/3
f 23/31/6 9/32/6 12/33/6
f 335/34/7 321/35/7 322/36/7
f 140/37/8 126/38/8 123/39/8
f 126/38/1 125/40/1 122/41/1
f 27/42/9 13/43/9 14/44/9
f 92/9/10 117/1/10 131/45/10
f 146/46/1 142/47/1 143/48/1
f 191/49/11 177/50/11 180/51/11
f 328/52/12 314/53/12 317/54/12
f 136/27/3 133/26/3 132/12/3
f 220/55/3 217/56/3 216/57/3
f 148/21/1 151/20/1 150/58/1
f 154/59/1 153/60/1 150/58/1
f 280/61/3 277/62/3 276/63/3
f 192/15/3 189/64/3 188/65/3
f 17/66/3 21/67/3 22/28/3
f 174/68/1 170/69/1 171/70/1
f 178/71/1 181/72/1 180/51/1
f 325/73/3 329/74/3 330/75/3
f 244/76/3 247/77/3 248/78/3
f 106/79/3 131/45/3 127/80/3
f 105/81/3 108/82/3 109/7/3
f 329/74/3 332/83/3 333/84/3
f 276/63/3 273/85/3 272/86/3
f 183/87/3 158/88/3 162/89/3
f 148/21/13 173/90/13 187/91/13
f 272/86/3 268/92/3 267/93/3
f 52/94/3 49/95/3 48/96/3
f 288/97/14 313/98/14 327/99/14
f 334/100/15 320/101/15 321/35/15
f 302/16/3 327/99/3 323/102/3
f 145/103/1 141/104/1 142/47/1
f 160/105/16 146/46/16 149/106/16
f 267/93/3 242/107/3 246/108/3
f 297/18/3 296/109/3 300/110/3
f 252/111/3 249/112/3 248/78/3
f 26/113/17 12/33/17 13/43/17
f 327/99/18 313/98/18 314/53/18
f 218/114/3 217/56/3 220/55/3
f 278/115/19 264/116/19 265/117/19
f 303/118/20 289/119/20 292/120/20
f 308/121/3 305/122/3 304/123/3
f 127/80/3 131/45/3 132/12/3
f 190/124/3 215/125/3 211/126/3
f 239/127/3 243/128/3 244/76/3
f 80/129/3 79/130/3 82/131/3
f 188/65/3 184/132/3 183/87/3
f 276/63/3 275/133/3 278/115/3
f 157/134/3 161/135/3 162/89/3
f 336/136/3 333/84/3 332/83/3
f 150/58/1 153/60/1 152/137/1
f 211/126/3 215/125/3 216/57/3
f 48/96/21 34/138/21 37/139/21
f 213/140/3 212/141/3 216/57/3
f 101/142/3 105/81/3 106/79/3
f 306/143/22 292/120/22 293/144/22
f 250/145/23 236/146/23 237/23/23
f 104/147/3 100/148/3 99/149/3
f 51/150/24 37/139/24 40/151/24
f 76/152/3 79/130/3 80/129/3
f 134/25/3 130/153/3 129/10/3
f 77/154/3 80/129/3 81/155/3
f 188/65/25 174/68/25 177/50/25
f 252/111/26 238/24/26 235/156/26
f 163/157/27 149/106/27 152/137/27
f 73/158/3 77/154/3 78/159/3
f 164/160/3 163/157/3 166/161/3
f 54/162/28 40/151/28 41/163/28
f 331/164/29 317/54/29 320/101/29
f 308/121/30 294/165/30 291/166/30
f 112/167/3 109/7/3 108/82/3
f 131/45/31 117/1/31 118/168/31
f 56/169/3 53/170/3 52/94/3
f 140/37/3 137/171/3 136/27/3
f 168/172/3 165/19/3 164/160/3
f 161/135/3 164/160/3 165/19/3
f 156/173/3 160/105/3 161/135/3
f 16/174/3 20/175/3 21/67/3
f 120/4/1 123/39/1 122/41/1
f 184/132/3 188/65/3 189/64/3
f 192/15/3 191/49/3 194/176/3
f 147/177/1 143/48/1 144/178/1
f 248/78/3 247/77/3 250/145/3
f 305/122/32 291/166/32 288/97/32
f 50/179/3 49/95/3 52/94/3
f 241/180/3 245/181/3 246/108/3
f 194/176/33 180/51/33 181/72/33
f 166/161/34 152/137/34 153/60/34
f 21/67/3 24/182/3 25/183/3
f 167/184/35 153/60/35 154/59/35
f 324/185/3 328/52/3 329/74/3
f 52/94/3 51/150/3 54/162/3
f 218/114/3 214/186/3 213/140/3
f 178/71/1 177/50/1 174/68/1
f 174/68/1 173/90/1 169/187/1
f 116/188/1 141/104/1 145/103/1
f 108/82/3 107/189/3 110/190/3
f 149/106/1 146/46/1 147/177/1
f 328/52/3 331/164/3 332/83/3
f 100/148/3 104/147/3 105/81/3
f 168/172/36 154/59/36 151/20/36
f 50/179/3 75/191/3 71/192/3
f 185/193/3 189/64/3 190/124/3
f 273/85/3 276/63/3 277/62/3
f 108/82/3 105/81/3 104/147/3
f 99/149/3 74/194/3 78/159/3
f 55/195/37 41/163/37 42/196/37
f 160/105/3 163/157/3 164/160/3
f 20/175/38 6/197/38 9/32/38
f 45/198/3 44/199/3 48/96/3
f 88/200/1 113/2/1 117/1/1
f 260/201/39 285/202/39 299/203/39
f 323/102/3 327/99/3 328/52/3
f 159/204/40 145/103/40 146/46/40
f 187/91/41 173/90/41 174/68/41
f 19/205/42 5/206/42 6/197/42
f 139/207/43 125/40/43 126/38/43
f 134/25/3 159/204/3 155/208/3
f 218/114/3 243/128/3 239/127/3
f 268/92/3 272/86/3 273/85/3
f 148/21/1 144/178/1 169/187/1
f 82/131/44 68/209/44 69/210/44
f 304/123/3 301/211/3 300/110/3
f 115/6/1 119/5/1 118/168/1
f 71/192/3 75/191/3 76/152/3
f 279/212/45 265/117/45 266/213/45
f 245/181/3 248/78/3 249/112/3
f 84/214/3 81/155/3 80/129/3
f 176/215/1 175/216/1 171/70/1
f 15/217/3 326/218/3 330/75/3
f 50/179/3 46/219/3 45/198/3
f 280/61/46 266/213/46 263/220/46
f 240/221/3 244/76/3 245/181/3
f 269/222/3 273/85/3 274/223/3
f 189/64/3 192/15/3 193/14/3
f 24/182/3 21/67/3 20/175/3
f 43/30/3 47/29/3 48/96/3
f 332/83/3 331/164/3 334/100/3
f 277/62/47 263/220/47 260/201/47
f 304/123/3 303/118/3 306/143/3
f 224/224/3 221/225/3 220/55/3
f 120/4/48 145/103/48 159/204/48
f 136/27/3 135/226/3 138/227/3
f 220/55/3 219/228/3 222/229/3
f 336/136/49 322/36/49 319/230/49
f 28/231/3 25/183/3 24/182/3
f 302/16/3 301/211/3 304/123/3
f 137/171/50 123/39/50 120/4/50
f 155/208/3 159/204/3 160/105/3
f 24/182/3 23/31/3 26/113/3
f 72/232/3 76/152/3 77/154/3
f 307/233/51 293/144/51 294/165/51
f 20/175/3 16/174/3 15/217/3
f 295/234/3 299/203/3 300/110/3
f 274/223/3 295/234/3 270/235/3
f 90/236/1 87/237/1 91/238/1
f 21/67/3 25/183/3 22/28/3
f 316/239/1 318/240/1 315/241/1
f 146/46/1 143/48/1 147/177/1
f 108/82/3 110/190/3 111/242/3
f 332/83/3 334/100/3 335/34/3
f 15/217/3 330/75/3 19/205/3
f 315/241/1 312/243/1 316/239/1
f 101/142/3 106/79/3 102/244/3
f 192/15/3 188/65/3 191/49/3
f 10/245/1 8/246/1 11/247/1
f 276/63/3 278/115/3 279/212/3
f 280/61/3 276/63/3 279/212/3
f 112/167/52 95/8/52 109/7/52
f 132/12/53 121/248/53 135/226/53
f 300/110/54 289/119/54 303/118/54
f 244/76/55 233/249/55 247/77/55
f 167/184/35 154/59/35 168/172/35
f 191/49/11 180/51/11 194/176/11
f 28/231/56 11/247/56 25/183/56
f 43/30/3 48/96/3 44/199/3
f 36/250/1 31/251/1 32/252/1
f 50/179/3 45/198/3 49/95/3
f 157/134/3 162/89/3 158/88/3
f 204/253/1 206/254/1 203/255/1
f 206/254/1 208/256/1 205/257/1
f 210/258/1 206/254/1 207/259/1
f 116/188/1 145/103/1 120/4/1
f 213/140/3 216/57/3 217/56/3
f 45/198/3 48/96/3 49/95/3
f 184/132/3 189/64/3 185/193/3
f 52/94/3 48/96/3 51/150/3
f 122/41/1 124/260/1 121/248/1
f 140/37/3 136/27/3 139/207/3
f 56/169/57 39/261/57 53/170/57
f 187/91/41 174/68/41 188/65/41
f 47/29/58 34/138/58 48/96/58
f 188/65/25 177/50/25 191/49/25
f 230/262/1 227/263/1 231/264/1
f 54/162/28 41/163/28 55/195/28
f 160/105/16 149/106/16 163/157/16
f 148/21/1 169/187/1 173/90/1
f 223/265/59 210/258/59 224/224/59
f 233/249/1 231/264/1 234/266/1
f 22/28/3 43/30/3 18/267/3
f 284/268/1 313/98/1 288/97/1
f 218/114/3 220/55/3 221/225/3
f 129/10/3 132/12/3 133/26/3
f 329/74/3 333/84/3 330/75/3
f 28/231/3 24/182/3 27/42/3
f 10/245/1 12/33/1 9/32/1
f 172/269/1 201/270/1 176/215/1
f 262/271/1 260/201/1 263/220/1
f 231/264/1 228/272/1 232/273/1
f 72/232/3 77/154/3 73/158/3
f 108/82/3 104/147/3 107/189/3
f 266/213/1 262/271/1 263/220/1
f 192/15/3 194/176/3 195/274/3
f 176/215/60 215/125/60 190/124/60
f 8/246/61 47/29/61 22/28/61
f 243/128/62 230/262/62 244/76/62
f 215/125/63 202/275/63 216/57/63
f 278/115/19 265/117/19 279/212/19
f 82/131/44 69/210/44 83/276/44
f 23/31/6 12/33/6 26/113/6
f 200/277/1 229/278/1 204/253/1
f 333/84/64 316/239/64 330/75/64
f 285/202/1 282/279/1 286/280/1
f 258/281/1 253/282/1 254/283/1
f 258/281/1 255/284/1 259/285/1
f 105/81/3 109/7/3 106/79/3
f 77/154/3 81/155/3 78/159/3
f 273/85/3 277/62/3 274/223/3
f 168/172/3 164/160/3 167/184/3
f 164/160/3 166/161/3 167/184/3
f 267/93/3 246/108/3 271/286/3
f 290/287/1 286/280/1 287/288/1
f 317/54/1 315/241/1 318/240/1
f 10/245/1 6/197/1 7/289/1
f 314/53/1 311/290/1 315/241/1
f 24/182/3 26/113/3 27/42/3
f 196/13/3 192/15/3 195/274/3
f 204/253/65 243/128/65 218/114/65
f 111/242/66 98/291/66 112/167/66
f 275/133/67 264/116/67 278/115/67
f 336/136/49 319/230/49 333/84/49
f 299/203/68 286/280/68 300/110/68
f 20/175/38 9/32/38 23/31/38
f 19/205/42 6/197/42 20/175/42
f 272/86/3 267/93/3 271/286/3
f 131/45/31 118/168/31 132/12/31
f 323/102/3 328/52/3 324/185/3
f 302/16/3 323/102/3 298/17/3
f 120/4/1 115/6/1 116/188/1
f 283/292/1 286/280/1 282/279/1
f 120/4/1 122/41/1 119/5/1
f 134/25/3 136/27/3 137/171/3
f 56/169/3 52/94/3 55/195/3
f 294/165/1 290/287/1 291/166/1
f 32/252/1 61/293/1 36/250/1
f 134/25/3 129/10/3 133/26/3
f 288/97/1 283/292/1 284/268/1
f 73/158/3 78/159/3 74/194/3
f 268/92/3 273/85/3 269/222/3
f 220/55/3 222/229/3 223/265/3
f 290/287/1 292/120/1 289/119/1
f 193/14/69 176/215/69 190/124/69
f 64/294/70 103/295/70 78/159/70
f 109/7/2 92/9/2 106/79/2
f 327/99/18 314/53/18 328/52/18
f 104/147/71 93/296/71 107/189/71
f 148/21/13 187/91/13 162/89/13
f 53/170/72 36/250/72 50/179/72
f 145/103/1 142/47/1 146/46/1
f 159/204/40 146/46/40 160/105/40
f 155/208/3 160/105/3 156/173/3
f 106/79/3 127/80/3 102/244/3
f 160/105/3 164/160/3 161/135/3
f 38/297/1 34/138/1 35/298/1
f 185/193/3 190/124/3 186/299/3
f 178/71/1 174/68/1 175/216/1
f 66/300/1 68/209/1 65/301/1
f 262/271/1 264/116/1 261/302/1
f 174/68/1 169/187/1 170/69/1
f 178/71/1 176/215/1 179/303/1
f 325/73/3 330/75/3 326/218/3
f 156/173/3 161/135/3 157/134/3
f 148/21/1 150/58/1 147/177/1
f 182/304/1 178/71/1 179/303/1
f 154/59/1 150/58/1 151/20/1
f 166/161/34 153/60/34 167/184/34
f 92/9/10 131/45/10 106/79/10
f 137/171/50 120/4/50 134/25/50
f 196/13/73 179/303/73 193/14/73
f 163/157/27 152/137/27 166/161/27
f 27/42/9 14/44/9 28/231/9
f 51/150/24 40/151/24 54/162/24
f 134/25/3 155/208/3 130/153/3
f 48/96/21 37/139/21 51/150/21
f 201/270/1 198/305/1 202/275/1
f 188/65/3 183/87/3 187/91/3
f 80/129/3 82/131/3 83/276/3
f 189/64/3 193/14/3 190/124/3
f 24/182/3 20/175/3 23/31/3
f 176/215/1 171/70/1 172/269/1
f 84/214/3 80/129/3 83/276/3
f 234/266/1 236/146/1 233/249/1
f 4/306/1 33/307/1 8/246/1
f 63/308/1 60/309/1 64/294/1
f 65/301/1 63/308/1 66/300/1
f 6/197/1 3/310/1 7/289/1
f 62/311/1 59/312/1 63/308/1
f 252/111/3 248/78/3 251/22/3
f 238/24/1 234/266/1 235/156/1
f 195/274/74 182/304/74 196/13/74
f 120/4/48 159/204/48 134/25/48
f 165/19/4 148/21/4 162/89/4
f 25/183/75 8/246/75 22/28/75
f 55/195/37 42/196/37 56/169/37
f 194/176/33 181/72/33 195/274/33
f 168/172/36 151/20/36 165/19/36
f 183/87/3 162/89/3 187/91/3
f 219/228/76 208/256/76 222/229/76
f 61/293/1 58/313/1 62/311/1
f 211/126/3 216/57/3 212/141/3
f 204/253/1 199/314/1 200/277/1
f 218/114/3 213/140/3 217/56/3
f 241/180/3 246/108/3 242/107/3
f 50/179/3 52/94/3 53/170/3
f 274/223/3 299/203/3 295/234/3
f 52/94/3 54/162/3 55/195/3
f 316/239/1 1/315/1 5/206/1
f 199/314/1 202/275/1 198/305/1
f 136/27/3 132/12/3 135/226/3
f 232/273/1 234/266/1 231/264/1
f 220/55/3 216/57/3 219/228/3
f 126/38/1 122/41/1 123/39/1
f 38/297/1 40/151/1 37/139/1
f 140/37/8 123/39/8 137/171/8
f 84/214/77 67/316/77 81/155/77
f 247/77/78 236/146/78 250/145/78
f 216/57/79 205/257/79 219/228/79
f 79/130/80 68/209/80 82/131/80
f 76/152/81 65/301/81 79/130/81
f 75/191/82 62/311/82 76/152/82
f 229/278/1 226/317/1 230/262/1
f 279/212/45 266/213/45 280/61/45
f 239/127/3 244/76/3 240/221/3
f 190/124/3 211/126/3 186/299/3
f 240/221/3 245/181/3 241/180/3
f 206/254/1 202/275/1 203/255/1
f 269/222/3 274/223/3 270/235/3
f 245/181/3 249/112/3 246/108/3
f 150/58/1 152/137/1 149/106/1
f 336/136/3 332/83/3 335/34/3
f 90/236/1 85/318/1 86/319/1
f 244/76/3 248/78/3 245/181/3
f 16/174/3 21/67/3 17/66/3
f 76/152/3 80/129/3 77/154/3
f 64/294/1 66/300/1 63/308/1
f 318/240/1 320/101/1 317/54/1
f 136/27/3 138/227/3 139/207/3
f 221/225/83 204/253/83 218/114/83
f 224/224/84 207/259/84 221/225/84
f 26/113/17 13/43/17 27/42/17
f 222/229/85 209/320/85 223/265/85
f 271/286/86 258/281/86 272/86/86
f 251/22/5 238/24/5 252/111/5
f 103/295/87 90/236/87 104/147/87
f 218/114/3 239/127/3 214/186/3
f 107/189/88 96/321/88 110/190/88
f 50/179/3 71/192/3 46/219/3
f 64/294/1 85/318/1 89/322/1
f 174/68/1 171/70/1 175/216/1
f 94/323/1 92/9/1 95/8/1
f 94/323/1 90/236/1 91/238/1
f 260/201/1 255/284/1 256/324/1
f 178/71/1 180/51/1 177/50/1
f 248/78/3 250/145/3 251/22/3
f 256/324/1 285/202/1 260/201/1
f 147/177/1 144/178/1 148/21/1
f 17/66/3 22/28/3 18/267/3
f 161/135/3 165/19/3 162/89/3
f 92/9/1 87/237/1 88/200/1
f 94/323/1 96/321/1 93/296/1
f 112/167/3 108/82/3 111/242/3
f 249/112/89 232/273/89 246/108/89
f 252/111/26 235/156/26 249/112/26
f 36/250/90 75/191/90 50/179/90
f 272/86/91 261/302/91 275/133/91
f 83/276/92 70/325/92 84/214/92
f 250/145/23 237/23/23 251/22/23
f 232/273/93 271/286/93 246/108/93
f 104/147/3 99/149/3 103/295/3
f 306/143/22 293/144/22 307/233/22
f 6/197/1 1/315/1 2/326/1
f 295/234/3 300/110/3 296/109/3
f 31/251/1 34/138/1 30/327/1
f 302/16/3 297/18/3 301/211/3
f 288/97/1 290/287/1 287/288/1
f 302/16/3 304/123/3 305/122/3
f 308/121/3 304/123/3 307/233/3
f 304/123/3 306/143/3 307/233/3
f 117/1/1 114/3/1 118/168/1
f 115/6/1 118/168/1 114/3/1
f 297/18/3 300/110/3 301/211/3
f 122/41/1 118/168/1 119/5/1
f 304/123/3 300/110/3 303/118/3
f 42/196/1 38/297/1 39/261/1
f 224/224/3 220/55/3 223/265/3
f 277/62/47 260/201/47 274/223/47
f 139/207/43 126/38/43 140/37/43
f 81/155/94 64/294/94 78/159/94
f 110/190/95 97/328/95 111/242/95
f 303/118/20 292/120/20 306/143/20
f 138/227/96 125/40/96 139/207/96
f 260/201/39 299/203/39 274/223/39
f 313/98/1 310/329/1 314/53/1
f 334/100/15 321/35/15 335/34/15
f 99/149/3 78/159/3 103/295/3
f 232/273/1 253/282/1 257/330/1
f 328/52/3 332/83/3 329/74/3
f 100/148/3 105/81/3 101/142/3
f 149/106/1 147/177/1 150/58/1
f 276/63/3 272/86/3 275/133/3
f 14/44/1 10/245/1 11/247/1
f 70/325/1 66/300/1 67/316/1
f 20/175/3 15/217/3 19/205/3
f 8/246/1 3/310/1 4/306/1
f 36/250/1 38/297/1 35/298/1
f 324/185/3 329/74/3 325/73/3
f 262/271/1 258/281/1 259/285/1
f 98/291/1 94/323/1 95/8/1
f 322/36/1 318/240/1 319/230/1
f 305/122/32 288/97/32 302/16/32
f 308/121/30 291/166/30 305/122/30
f 135/226/97 124/260/97 138/227/97
f 331/164/29 320/101/29 334/100/29
f 328/52/12 317/54/12 331/164/12
f 335/34/7 322/36/7 336/136/7
f 307/233/51 294/165/51 308/121/51
f 127/80/3 132/12/3 128/11/3
f 280/61/46 263/220/46 277/62/46
f 33/307/1 30/327/1 34/138/1
f 71/192/3 76/152/3 72/232/3
f 288/97/14 327/99/14 302/16/14
f 88/200/1 117/1/1 92/9/1
f 316/239/98 19/205/98 330/75/98
f 90/236/1 86/319/1 87/237/1
f 316/239/1 319/230/1 318/240/1
f 315/241/1 311/290/1 312/243/1
f 10/245/1 7/289/1 8/246/1
f 112/167/52 98/291/52 95/8/52
f 132/12/53 118/168/53 121/248/53
f 300/110/54 286/280/54 289/119/54
f 244/76/55 230/262/55 233/249/55
f 28/231/56 14/44/56 11/247/56
f 36/250/1 35/298/1 31/251/1
f 204/253/1 207/259/1 206/254/1
f 206/254/1 209/320/1 208/256/1
f 210/258/1 209/320/1 206/254/1
f 122/41/1 125/40/1 124/260/1
f 56/169/57 42/196/57 39/261/57
f 47/29/58 33/307/58 34/138/58
f 230/262/1 226/317/1 227/263/1
f 223/265/59 209/320/59 210/258/59
f 233/249/1 230/262/1 231/264/1
f 284/268/1 309/331/1 313/98/1
f 10/245/1 13/43/1 12/33/1
f 172/269/1 197/332/1 201/270/1
f 262/271/1 259/285/1 260/201/1
f 231/264/1 227/263/1 228/272/1
f 266/213/1 265/117/1 262/271/1
f 176/215/60 201/270/60 215/125/60
f 8/246/61 33/307/61 47/29/61
f 243/128/62 229/278/62 230/262/62
f 215/125/63 201/270/63 202/275/63
f 200/277/1 225/333/1 229/278/1
f 333/84/64 319/230/64 316/239/64
f 285/202/1 281/334/1 282/279/1
f 258/281/1 257/330/1 253/282/1
f 258/281/1 254/283/1 255/284/1
f 290/287/1 289/119/1 286/280/1
f 317/54/1 314/53/1 315/241/1
f 10/245/1 9/32/1 6/197/1
f 314/53/1 310/329/1 311/290/1
f 204/253/65 229/278/65 243/128/65
f 111/242/66 97/328/66 98/291/66
f 275/133/67 261/302/67 264/116/67
f 299/203/68 285/202/68 286/280/68
f 283/292/1 287/288/1 286/280/1
f 294/165/1 293/144/1 290/287/1
f 32/252/1 57/335/1 61/293/1
f 288/97/1 287/288/1 283/292/1
f 290/287/1 293/144/1 292/120/1
f 193/14/69 179/303/69 176/215/69
f 64/294/70 89/322/70 103/295/70
f 104/147/71 90/236/71 93/296/71
f 53/170/72 39/261/72 36/250/72
f 38/297/1 37/139/1 34/138/1
f 66/300/1 69/210/1 68/209/1
f 262/271/1 265/117/1 264/116/1
f 178/71/1 175/216/1 176/215/1
f 182/304/1 181/72/1 178/71/1
f 196/13/73 182/304/73 179/303/73
f 201/270/1 197/332/1 198/305/1
f 234/266/1 237/23/1 236/146/1
f 4/306/1 29/336/1 33/307/1
f 63/308/1 59/312/1 60/309/1
f 65/301/1 62/311/1 63/308/1
f 6/197/1 2/326/1 3/310/1
f 62/311/1 58/313/1 59/312/1
f 238/24/1 237/23/1 234/266/1
f 195/274/74 181/72/74 182/304/74
f 25/183/75 11/247/75 8/246/75
f 219/228/76 205/257/76 208/256/76
f 61/293/1 57/335/1 58/313/1
f 204/253/1 203/255/1 199/314/1
f 316/239/1 312/243/1 1/315/1
f 199/314/1 203/255/1 202/275/1
f 232/273/1 235/156/1 234/266/1
f 38/297/1 41/163/1 40/151/1
f 84/214/77 70/325/77 67/316/77
f 247/77/78 233/249/78 236/146/78
f 216/57/79 202/275/79 205/257/79
f 79/130/80 65/301/80 68/209/80
f 76/152/81 62/311/81 65/301/81
f 75/191/82 61/293/82 62/311/82
f 229/278/1 225/333/1 226/317/1
f 206/254/1 205/257/1 202/275/1
f 90/236/1 89/322/1 85/318/1
f 64/294/1 67/316/1 66/300/1
f 318/240/1 321/35/1 320/101/1
f 221/225/83 207/259/83 204/253/83
f 224/224/84 210/258/84 207/259/84
f 222/229/85 208/256/85 209/320/85
f 271/286/86 257/330/86 258/281/86
f 103/295/87 89/322/87 90/236/87
f 107/189/88 93/296/88 96/321/88
f 64/294/1 60/309/1 85/318/1
f 94/323/1 91/238/1 92/9/1
f 94/323/1 93/296/1 90/236/1
f 260/201/1 259/285/1 255/284/1
f 256/324/1 281/334/1 285/202/1
f 92/9/1 91/238/1 87/237/1
f 94/323/1 97/328/1 96/321/1
f 249/112/89 235/156/89 232/273/89
f 36/250/90 61/293/90 75/191/90
f 272/86/91 258/281/91 261/302/91
f 83/276/92 69/210/92 70/325/92
f 232/273/93 257/330/93 271/286/93
f 6/197/1 5/206/1 1/315/1
f 31/251/1 35/298/1 34/138/1
f 288/97/1 291/166/1 290/287/1
f 122/41/1 121/248/1 118/168/1
f 42/196/1 41/163/1 38/297/1
f 81/155/94 67/316/94 64/294/94
f 110/190/95 96/321/95 97/328/95
f 138/227/96 124/260/96 125/40/96
f 313/98/1 309/331/1 310/329/1
f 232/273/1 228/272/1 253/282/1
f 14/44/1 13/43/1 10/245/1
f 70/325/1 69/210/1 66/300/1
f 8/246/1 7/289/1 3/310/1
f 36/250/1 39/261/1 38/297/1
f 262/271/1 261/302/1 258/281/1
f 98/291/1 97/328/1 94/323/1
f 322/36/1 321/35/1 318/240/1
f 135/226/97 121/248/97 124/260/97
f 33/307/1 29/336/1 30/327/1
f 316/239/98 5/206/98 19/205/98
