# Blender 5.0.0
# www.blender.org
mtllib gem.mtl
o Gem.002
v 0.000000 -0.800000 0.000000
v 0.000000 0.350000 0.000000
v 0.000000 -0.400000 -0.541196
v 0.382683 0.000000 -0.923880
v 0.000000 0.175000 -0.865914
v 0.229610 0.350000 -0.554328
v 0.382683 -0.400000 -0.382683
v 0.923880 0.000000 -0.382683
v 0.612293 0.175000 -0.612293
v 0.554328 0.350000 -0.229610
v 0.541196 -0.400000 -0.000000
v 0.923880 0.000000 0.382683
v 0.865914 0.175000 -0.000000
v 0.554328 0.350000 0.229610
v 0.382683 -0.400000 0.382683
v 0.382683 0.000000 0.923880
v 0.612293 0.175000 0.612293
v 0.229610 0.350000 0.554328
v 0.000000 -0.400000 0.541196
v -0.382683 0.000000 0.923880
v 0.000000 0.175000 0.865914
v -0.229610 0.350000 0.554328
v -0.382683 -0.400000 0.382683
v -0.923880 0.000000 0.382683
v -0.612293 0.175000 0.612293
v -0.554328 0.350000 0.229610
v -0.541196 -0.400000 0.000000
v -0.923880 0.000000 -0.382683
v -0.865914 0.175000 0.000000
v -0.554328 0.350000 -0.229610
v -0.382683 -0.400000 -0.382683
v -0.382683 0.000000 -0.923880
v -0.612293 0.175000 -0.612293
v -0.229610 0.350000 -0.554328
vn 0.2391 -0.7809 -0.5771
vn 0.5109 -0.6913 -0.5109
vn 0.6712 0.3144 -0.6712
vn 0.2520 0.7526 -0.6084
vn 0.3463 0.8719 -0.3463
vn 0.5771 -0.7809 -0.2391
vn 0.7226 -0.6913 -0.0000
vn 0.9493 0.3144 -0.0000
vn 0.6084 0.7526 -0.2520
vn 0.4897 0.8719 -0.0000
vn 0.5771 -0.7809 0.2391
vn 0.5109 -0.6913 0.5109
vn 0.6712 0.3144 0.6712
vn 0.6084 0.7526 0.2520
vn 0.3463 0.8719 0.3463
vn 0.2391 -0.7809 0.5771
vn -0.0000 -0.6913 0.7226
vn -0.0000 0.3144 0.9493
vn 0.2520 0.7526 0.6084
vn -0.0000 0.8719 0.4897
vn -0.2391 -0.7809 0.5771
vn -0.5109 -0.6913 0.5109
vn -0.6712 0.3144 0.6712
vn -0.2520 0.7526 0.6084
vn -0.3463 0.8719 0.3463
vn -0.5771 -0.7809 0.2391
vn -0.7226 -0.6913 -0.0000
vn -0.9493 0.3144 -0.0000
vn -0.6084 0.7526 0.2520
vn -0.4897 0.8719 -0.0000
vn -0.5771 -0.7809 -0.2391
vn -0.5109 -0.6913 -0.5109
vn -0.6712 0.3144 -0.6712
vn -0.6084 0.7526 -0.2520
vn -0.3463 0.8719 -0.3463
vn -0.2391 -0.7809 -0.5771
vn -0.0000 -0.6913 -0.7226
vn -0.0000 0.3144 -0.9493
vn -0.2520 0.7526 -0.6084
vn -0.0000 0.8719 -0.4897
vn -0.0000 1.0000 -0.0000
vt 0.000000 0.000000
vt 0.000088 0.412217
vt 0.031528 0.076928
vt 0.081985 0.241039
vt 0.228110 0.155726
vt 0.208325 0.320707
vt 0.024748 0.730335
vt 0.213640 0.595337
vt 0.156874 0.461360
vt 0.312313 0.450431
vt 0.180146 0.817871
vt 0.458911 0.728884
vt 0.358031 0.599816
vt 0.470631 0.500341
vt 0.263905 0.951239
vt 0.763034 0.574466
vt 0.590518 0.588753
vt 0.616647 0.421028
vt 0.773460 0.393785
vt 0.664431 0.247592
vt 0.194644 0.000088
vt 0.371219 0.047644
vt 0.434253 0.271019
vt 0.559992 0.085597
vt 0.000088 0.999912
s 0
f 7/1/1 3/1/1 4/1/1
f 7/1/2 4/1/2 8/1/2
f 8/2/3 4/3/3 9/4/3
f 4/3/4 6/5/4 9/4/4
f 9/4/5 6/5/5 10/6/5
f 11/1/6 7/1/6 8/1/6
f 11/7/7 8/2/7 12/8/7
f 12/8/8 8/2/8 13/9/8
f 8/2/9 10/6/9 13/9/9
f 13/9/10 10/6/10 14/10/10
f 15/11/11 11/7/11 12/8/11
f 15/11/12 12/8/12 16/12/12
f 16/12/13 12/8/13 17/13/13
f 12/8/14 14/10/14 17/13/14
f 17/13/15 14/10/15 18/14/15
f 19/15/16 15/11/16 16/12/16
f 19/1/17 16/1/17 20/1/17
f 20/16/18 16/12/18 21/17/18
f 16/12/19 18/14/19 21/17/19
f 21/17/20 18/14/20 22/18/20
f 23/1/21 19/1/21 20/1/21
f 23/1/22 20/1/22 24/1/22
f 24/1/23 20/1/23 25/1/23
f 20/16/24 22/18/24 25/19/24
f 25/19/25 22/18/25 26/20/25
f 27/1/26 23/1/26 24/1/26
f 27/1/27 24/1/27 28/1/27
f 28/1/28 24/1/28 29/1/28
f 24/1/29 26/1/29 29/1/29
f 29/1/30 26/1/30 30/1/30
f 31/1/31 27/1/31 28/1/31
f 31/1/32 28/1/32 32/1/32
f 32/1/33 28/1/33 33/1/33
f 28/1/34 30/1/34 33/1/34
f 33/1/35 30/1/35 34/1/35
f 3/1/36 31/1/36 32/1/36
f 3/1/37 32/1/37 4/1/37
f 4/1/38 32/1/38 5/1/38
f 32/1/39 34/1/39 5/1/39
f 5/21/40 34/22/40 6/5/40
f 2/23/41 6/5/41 34/22/41
f 6/5/41 2/23/41 10/6/41
f 10/6/41 2/23/41 14/10/41
f 14/10/41 2/23/41 18/14/41
f 18/14/41 2/23/41 22/18/41
f 22/18/41 2/23/41 26/20/41
f 26/20/41 2/23/41 30/24/41
f 30/24/41 2/23/41 34/22/41
f 7/1/1 1/1/1 3/1/1
f 4/3/4 5/21/4 6/5/4
f 11/1/6 1/1/6 7/1/6
f 8/2/9 9/4/9 10/6/9
f 15/11/11 1/25/11 11/7/11
f 12/8/14 13/9/14 14/10/14
f 19/15/16 1/25/16 15/11/16
f 16/12/19 17/13/19 18/14/19
f 23/1/21 1/1/21 19/1/21
f 20/16/24 21/17/24 22/18/24
f 27/1/26 1/1/26 23/1/26
f 24/1/29 25/1/29 26/1/29
f 31/1/31 1/1/31 27/1/31
f 28/1/34 29/1/34 30/1/34
f 3/1/36 1/1/36 31/1/36
f 32/1/39 33/1/39 34/1/39
