# Blender 5.0.0
# www.blender.org
mtllib Untitled.mtl
o Star
v -0.008049 0.257507 0.008995
v -0.008049 -0.242493 0.008995
v 0.491951 0.257507 0.008995
v 0.491951 -0.242493 0.008995
v 0.800968 0.257507 -0.578790
v 0.800968 -0.242493 -0.578790
v 0.146460 0.257507 -0.466533
v 0.146460 -0.242493 -0.466533
v -0.317066 0.257507 -0.942061
v -0.317066 -0.242493 -0.942061
v -0.412558 0.257507 -0.284897
v -0.412558 -0.242493 -0.284897
v -1.008049 0.257507 0.008995
v -1.008049 -0.242493 0.008995
v -0.412558 0.257507 0.302888
v -0.412558 -0.242493 0.302888
v -0.317066 0.257507 0.960052
v -0.317066 -0.242493 0.960052
v 0.146460 0.257507 0.484523
v 0.146460 -0.242493 0.484523
v 0.800968 0.257507 0.596781
v 0.800968 -0.242493 0.596781
vn -0.0000 1.0000 -0.0000
vn 0.8851 -0.0000 -0.4653
vn 0.8851 -0.0000 0.4653
vn -0.1690 -0.0000 -0.9856
vn 0.7161 -0.0000 -0.6980
vn -0.9896 -0.0000 -0.1438
vn -0.4426 -0.0000 -0.8967
vn -0.4426 -0.0000 0.8967
vn -0.9896 -0.0000 0.1438
vn 0.7161 -0.0000 0.6980
vn -0.1690 -0.0000 0.9856
vn -0.0000 -1.0000 -0.0000
vt 0.666073 0.619833
vt 0.431835 0.602005
vt 0.719323 0.397857
vt 0.702451 0.834371
vt 0.455627 0.840109
vt 0.237721 0.995753
vt 0.242020 0.710503
vt 0.000096 0.566861
vt 0.260982 0.464468
vt 0.289366 0.166010
vt 0.496123 0.360822
vt 0.916406 0.353872
vt 0.911574 0.634587
vt 0.826125 0.999904
vt 0.000000 0.000000
vt 0.028623 0.999904
vt 0.418826 0.000096
vt 0.637706 0.137199
s 1
f 3/1/1 1/2/1 21/3/1
f 1/2/1 3/1/1 5/4/1
f 1/2/1 5/4/1 7/5/1
f 1/2/1 7/5/1 9/6/1
f 1/2/1 9/6/1 11/7/1
f 1/2/1 11/7/1 13/8/1
f 1/2/1 13/8/1 15/9/1
f 1/2/1 15/9/1 17/10/1
f 1/2/1 17/10/1 19/11/1
f 1/2/1 19/11/1 21/3/1
f 3/1/2 22/12/2 4/13/2
f 4/13/3 5/4/3 3/1/3
f 6/14/4 7/5/4 5/4/4
f 8/15/5 9/15/5 7/15/5
f 10/16/6 11/7/6 9/6/6
f 12/15/7 13/15/7 11/15/7
f 14/15/8 15/15/8 13/15/8
f 16/15/9 17/15/9 15/15/9
f 18/17/10 19/11/10 17/10/10
f 20/18/11 21/3/11 19/11/11
f 2/15/12 4/15/12 22/15/12
f 4/15/12 2/15/12 6/15/12
f 6/15/12 2/15/12 8/15/12
f 8/15/12 2/15/12 10/15/12
f 10/15/12 2/15/12 12/15/12
f 12/15/12 2/15/12 14/15/12
f 14/15/12 2/15/12 16/15/12
f 16/15/12 2/15/12 18/15/12
f 18/15/12 2/15/12 20/15/12
f 20/15/12 2/15/12 22/15/12
f 3/1/2 21/3/2 22/12/2
f 4/13/3 6/14/3 5/4/3
f 6/15/4 8/15/4 7/15/4
f 8/15/5 10/15/5 9/15/5
f 10/15/6 12/15/6 11/15/6
f 12/15/7 14/15/7 13/15/7
f 14/15/8 16/15/8 15/15/8
f 16/15/9 18/15/9 17/15/9
f 18/17/10 20/18/10 19/11/10
f 20/18/11 22/12/11 21/3/11
